<svg width="80" height="80" viewBox="0 0 80 80" fill="none" xmlns="http://www.w3.org/2000/svg">
<path d="M10 50H12.6C14.4333 47.9667 17.0667 46.6667 20 46.6667C22.9333 46.6667 25.5667 47.9667 27.4 50H50V20H10V50Z" fill="black"/>
<path d="M56.6666 26.6668V13.3335H9.99992C6.33325 13.3335 3.33325 16.3335 3.33325 20.0002V56.6668H9.99992C9.99992 62.2002 14.4666 66.6668 19.9999 66.6668C25.5333 66.6668 29.9999 62.2002 29.9999 56.6668H49.9999C49.9999 62.2002 54.4666 66.6668 59.9999 66.6668C65.5333 66.6668 69.9999 62.2002 69.9999 56.6668H76.6666V40.0002L66.6666 26.6668H56.6666ZM19.9999 60.0002C18.1666 60.0002 16.6666 58.5002 16.6666 56.6668C16.6666 54.8335 18.1666 53.3335 19.9999 53.3335C21.8333 53.3335 23.3333 54.8335 23.3333 56.6668C23.3333 58.5002 21.8333 60.0002 19.9999 60.0002ZM49.9999 50.0002H27.3999C25.5666 47.9668 22.9666 46.6668 19.9999 46.6668C17.0333 46.6668 14.4333 47.9668 12.5999 50.0002H9.99992V20.0002H49.9999V50.0002ZM59.9999 60.0002C58.1666 60.0002 56.6666 58.5002 56.6666 56.6668C56.6666 54.8335 58.1666 53.3335 59.9999 53.3335C61.8333 53.3335 63.3333 54.8335 63.3333 56.6668C63.3333 58.5002 61.8333 60.0002 59.9999 60.0002ZM56.6666 40.0002V31.6668H64.9999L71.5333 40.0002H56.6666Z" fill="#312F30"/>
</svg>
