<svg width="80" height="76" viewBox="0 0 80 76" fill="none" xmlns="http://www.w3.org/2000/svg">
<path d="M39.7321 75.9453C61.6676 75.9453 79.4507 58.9457 79.4507 37.9727C79.4507 16.9996 61.6676 0 39.7321 0C17.7965 0 0 16.9996 0 37.9727C0 58.9457 17.783 75.9453 39.7321 75.9453Z" fill="white"/>
<path d="M64.1584 27.6867V47.3224C64.1584 48.0039 63.5787 48.5697 62.8641 48.5697C62.1496 48.5697 61.5699 48.0168 61.5699 47.3224V27.6867C61.5699 25.3721 59.6015 23.4818 57.1747 23.4818C54.7479 23.4818 52.7795 25.3721 52.7795 27.6867V47.3224C52.7795 51.0129 49.6381 54.0091 45.7822 54.0091C41.9263 54.0091 38.7849 51.0129 38.7849 47.3224V27.6867C38.7849 25.3721 36.8165 23.4818 34.3897 23.4818C31.9629 23.4818 29.9945 25.3721 29.9945 27.6867V47.3224C29.9945 51.0129 26.8532 54.0091 22.9973 54.0091C19.1414 54.0091 16 51.0129 16 47.3224V27.6867C16 27.0052 16.5797 26.4394 17.2943 26.4394C18.0088 26.4394 18.5886 26.9923 18.5886 27.6867V47.3224C18.5886 49.637 20.557 51.5273 22.9838 51.5273C25.4106 51.5273 27.379 49.637 27.379 47.3224V27.6867C27.379 23.9962 30.5203 21 34.3762 21C38.2322 21 41.3735 23.9962 41.3735 27.6867V47.3224C41.3735 49.637 43.3419 51.5273 45.7687 51.5273C48.1955 51.5273 50.1639 49.637 50.1639 47.3224V27.6867C50.1639 23.9962 53.3053 21 57.1612 21C61.0171 21 64.1584 24.009 64.1584 27.6867Z" fill="#312F30"/>
</svg>
