<svg width="120" height="41" viewBox="0 0 120 41" fill="none" xmlns="http://www.w3.org/2000/svg">
<path d="M42.0007 31.8831C42.0007 36.6967 37.9809 40.5824 33.0011 40.5824C28.0213 40.5824 24.0014 36.6967 24.0014 31.8831C24.0014 27.0695 28.0213 23.1838 33.0011 23.1838C37.9809 23.1838 42.0007 27.0695 42.0007 31.8831ZM86.9989 23.1838C82.0191 23.1838 77.9993 27.0695 77.9993 31.8831C77.9993 36.6967 82.0191 40.5824 86.9989 40.5824C91.9787 40.5824 95.9986 36.6967 95.9986 31.8831C95.9986 27.0695 91.9787 23.1838 86.9989 23.1838ZM117.538 1.08764C114.838 -0.768207 110.998 -0.188253 109.138 2.36354L108.358 3.40745C107.278 4.91533 105.418 5.78526 103.558 5.78526H16.4417C14.5818 5.78526 12.7819 4.91533 11.6419 3.40745L10.862 2.36354C9.00204 -0.188253 5.16219 -0.768207 2.4623 1.08764C-0.23759 2.88549 -0.777569 6.65519 1.14235 9.20698L1.92232 10.2509C5.28219 14.7165 10.742 17.3843 16.4417 17.3843H103.558C109.258 17.3843 114.718 14.7165 118.078 10.2509L118.858 9.20698C120.778 6.65519 120.238 2.88549 117.538 1.08764Z" fill="black"/>
</svg>
