<svg width="80" height="80" viewBox="0 0 80 80" fill="none" xmlns="http://www.w3.org/2000/svg">
<path fill-rule="evenodd" clip-rule="evenodd" d="M18.3332 3.3335C17.7233 3.3335 17.162 3.66665 16.87 4.20208L7.34379 21.6668H28.3332H53.3332H72.6558L63.1297 4.20208C62.8377 3.66665 62.2763 3.3335 61.6665 3.3335H18.3332ZM6.6665 25.0002H26.6665V45.0002C26.6665 45.6148 27.0048 46.1797 27.5467 46.4697C28.0887 46.7597 28.7462 46.7278 29.2577 46.387L40.8332 38.67L52.4087 46.387C52.9202 46.7278 53.5777 46.7597 54.1197 46.4697C54.6615 46.1797 54.9998 45.6148 54.9998 45.0002V25.0002H73.3332V75.0002C73.3332 75.9207 72.587 76.6668 71.6665 76.6668H8.33317C7.4127 76.6668 6.6665 75.9207 6.6665 75.0002V25.0002ZM29.9998 25.0002H51.6665V41.886L41.7577 35.28C41.1978 34.9068 40.4685 34.9068 39.9087 35.28L29.9998 41.886V25.0002ZM18.3332 56.6668C17.4127 56.6668 16.6665 57.413 16.6665 58.3335V65.0002C16.6665 65.9207 17.4127 66.6668 18.3332 66.6668H34.9998C35.9203 66.6668 36.6665 65.9207 36.6665 65.0002V58.3335C36.6665 57.413 35.9203 56.6668 34.9998 56.6668H18.3332ZM19.9998 63.3335V60.0002H33.3332V63.3335H19.9998Z" fill="black"/>
</svg>
