<svg width="44" height="34" viewBox="0 0 44 34" fill="none" xmlns="http://www.w3.org/2000/svg">
<g clip-path="url(#clip0_109_1354)" filter="url(#filter0_d_109_1354)">
<path d="M7.58325 3.22751H11.052L16.4478 19.0343H33.4062" stroke="#312F30" stroke-width="3" stroke-linecap="round" stroke-linejoin="round"/>
<path d="M19.5312 23.8567C20.8084 23.8567 21.8438 23.137 21.8438 22.2492C21.8438 21.3614 20.8084 20.6418 19.5312 20.6418C18.2541 20.6418 17.2188 21.3614 17.2188 22.2492C17.2188 23.137 18.2541 23.8567 19.5312 23.8567Z" fill="#312F30"/>
<path d="M29.552 23.8567C30.8292 23.8567 31.8645 23.137 31.8645 22.2492C31.8645 21.3614 30.8292 20.6418 29.552 20.6418C28.2748 20.6418 27.2395 21.3614 27.2395 22.2492C27.2395 23.137 28.2748 23.8567 29.552 23.8567Z" fill="#312F30"/>
<path d="M12.5938 6.71036H38.0529C39.1356 6.71036 39.8801 7.4679 39.4876 8.17042L35.297 15.6719C35.0669 16.0838 34.4971 16.3552 33.8623 16.3552H15.6726L12.5938 6.71036Z" fill="#312F30"/>
</g>
<defs>
<filter id="filter0_d_109_1354" x="0.5" y="0.280487" width="45" height="33.7195" filterUnits="userSpaceOnUse" color-interpolation-filters="sRGB">
<feFlood flood-opacity="0" result="BackgroundImageFix"/>
<feColorMatrix in="SourceAlpha" type="matrix" values="0 0 0 0 0 0 0 0 0 0 0 0 0 0 0 0 0 0 127 0" result="hardAlpha"/>
<feOffset dy="4"/>
<feGaussianBlur stdDeviation="2"/>
<feComposite in2="hardAlpha" operator="out"/>
<feColorMatrix type="matrix" values="0 0 0 0 0 0 0 0 0 0 0 0 0 0 0 0 0 0 0.25 0"/>
<feBlend mode="normal" in2="BackgroundImageFix" result="effect1_dropShadow_109_1354"/>
<feBlend mode="normal" in="SourceGraphic" in2="effect1_dropShadow_109_1354" result="shape"/>
</filter>
<clipPath id="clip0_109_1354">
<rect width="37" height="25.7195" fill="white" transform="translate(4.5 0.280487)"/>
</clipPath>
</defs>
</svg>
